<svg xmlns="http://www.w3.org/2000/svg" viewBox="0 0 64 64" fill="none">
  <rect width="64" height="64" rx="16" fill="#F6F1EA"/>
  <circle cx="52" cy="32" r="4" fill="#DC7746"/>
  <path d="M14 46V18H32.5C39 18 43 21.2 43 26.6C43 30.2 40.9 32.9 37.2 34C41.7 34.8 44.5 37.8 44.5 42C44.5 48 39.8 52 32.4 52H14V46ZM21.4 31.6H31.2C34.5 31.6 36.3 30.3 36.3 27.7C36.3 25.3 34.5 24 31.2 24H21.4V31.6ZM21.4 45.8H31.9C35.7 45.8 37.8 44.2 37.8 41.3C37.8 38.5 35.7 36.9 31.9 36.9H21.4V45.8Z" fill="#241D18"/>
</svg>
